<svg width="26" height="26" viewBox="0 0 26 26" fill="none" xmlns="http://www.w3.org/2000/svg">
<path d="M13.0771 25.4204C20.0868 25.4204 25.7694 19.7378 25.7694 12.7281C25.7694 5.71831 20.0868 0.0357666 13.0771 0.0357666C6.06731 0.0357666 0.384766 5.71831 0.384766 12.7281C0.384766 19.7378 6.06731 25.4204 13.0771 25.4204Z" fill="#0C1124"/>
<path d="M20.2476 14.7716C20.1851 14.7093 20.1063 14.666 20.0203 14.6466C19.9342 14.6273 19.8444 14.6328 19.7614 14.6624C18.6449 15.0605 17.4384 15.1335 16.282 14.8732C15.1257 14.6128 14.067 14.0297 13.2288 13.1915C12.3907 12.3533 11.8076 11.2946 11.5473 10.1382C11.287 8.98183 11.3602 7.77534 11.7583 6.65889C11.7879 6.5758 11.7933 6.48602 11.774 6.39997C11.7546 6.31392 11.7113 6.23511 11.6489 6.1727C11.5866 6.11028 11.5079 6.0668 11.4219 6.04731C11.3358 6.02781 11.2461 6.0331 11.1629 6.06255C10.1564 6.41799 9.24292 6.99585 8.49057 7.75312C7.14186 9.10286 6.38441 10.933 6.38477 12.8411C6.38513 14.7492 7.14327 16.579 8.4925 17.9282C9.84172 19.2774 11.6716 20.0356 13.5796 20.036C15.4877 20.0363 17.3179 19.2789 18.6676 17.9301C19.4249 17.1777 20.0028 16.2641 20.3582 15.2573C20.3875 15.1742 20.3927 15.0844 20.3731 14.9985C20.3535 14.9125 20.31 14.8338 20.2476 14.7716Z" fill="white"/>
</svg>
