<svg width="26" height="26" viewBox="0 0 26 26" fill="none" xmlns="http://www.w3.org/2000/svg">
<path d="M13.0771 25.4204C20.0868 25.4204 25.7694 19.7378 25.7694 12.7281C25.7694 5.71831 20.0868 0.0357666 13.0771 0.0357666C6.06731 0.0357666 0.384766 5.71831 0.384766 12.7281C0.384766 19.7378 6.06731 25.4204 13.0771 25.4204Z" fill="white"/>
<path d="M13.3844 6.03577C13.7359 6.03577 14.0208 6.32069 14.0208 6.67212V7.94486C14.0208 8.29631 13.7359 8.58121 13.3844 8.58121C13.0329 8.58121 12.748 8.29629 12.748 7.94486V6.67212C12.748 6.32069 13.0329 6.03577 13.3844 6.03577Z" fill="#5F5E70"/>
<path d="M13.3841 9.50537C11.4343 9.50537 9.85376 11.0859 9.85376 13.0357C9.85376 14.9854 11.4343 16.566 13.3841 16.566C15.3338 16.566 16.9144 14.9854 16.9144 13.0357C16.9144 11.0859 15.3338 9.50537 13.3841 9.50537Z" fill="#5F5E70"/>
<path d="M9.34952 8.10082C9.101 7.8523 8.69807 7.8523 8.44957 8.10082C8.20105 8.34934 8.20105 8.75227 8.44957 9.00079L9.35867 9.90988C9.60719 10.1584 10.0101 10.1584 10.2586 9.90988C10.5071 9.66136 10.5071 9.25843 10.2586 9.00991L9.34952 8.10082Z" fill="#5F5E70"/>
<path d="M6.38477 13.0358C6.38477 12.6843 6.66969 12.3994 7.02112 12.3994H8.29385C8.64531 12.3994 8.93021 12.6843 8.93021 13.0358C8.93021 13.3872 8.64531 13.6721 8.29385 13.6721H7.02112C6.66969 13.6721 6.38477 13.3873 6.38477 13.0358Z" fill="#5F5E70"/>
<path d="M10.2586 17.0615C10.5071 16.813 10.5071 16.4102 10.2586 16.1616C10.0101 15.9131 9.60716 15.9131 9.35867 16.1616L8.44957 17.0707C8.20105 17.3192 8.20105 17.7222 8.44957 17.9706C8.69809 18.2191 9.101 18.2191 9.34952 17.9706L10.2586 17.0615Z" fill="#5F5E70"/>
<path d="M13.3844 17.4904C13.7359 17.4904 14.0208 17.7753 14.0208 18.1267V19.3994C14.0208 19.7509 13.7359 20.0358 13.3844 20.0358C13.0329 20.0358 12.748 19.7509 12.748 19.3994V18.1267C12.748 17.7753 13.0329 17.4904 13.3844 17.4904Z" fill="#5F5E70"/>
<path d="M17.4106 16.1616C17.162 15.9131 16.7591 15.9131 16.5106 16.1616C16.2621 16.4102 16.2621 16.813 16.5106 17.0615L17.4197 17.9706C17.6683 18.2191 18.0711 18.2191 18.3196 17.9706C18.5682 17.7222 18.5682 17.3192 18.3196 17.0707L17.4106 16.1616Z" fill="#5F5E70"/>
<path d="M17.8391 13.0358C17.8391 12.6843 18.124 12.3994 18.4755 12.3994H19.7482C20.0997 12.3994 20.3846 12.6843 20.3846 13.0358C20.3846 13.3872 20.0997 13.6721 19.7482 13.6721H18.4755C18.124 13.6721 17.8391 13.3873 17.8391 13.0358Z" fill="#5F5E70"/>
<path d="M18.3196 9.00079C18.5682 8.75227 18.5682 8.34934 18.3196 8.10082C18.0711 7.8523 17.6683 7.8523 17.4197 8.10082L16.5106 9.00991C16.2621 9.25843 16.2621 9.66136 16.5106 9.90988C16.7591 10.1584 17.162 10.1584 17.4106 9.90988L18.3196 9.00079Z" fill="#5F5E70"/>
</svg>
