<svg width="24" height="24" viewBox="0 0 24 24" fill="none" xmlns="http://www.w3.org/2000/svg">
<path d="M14.575 19.7521H17.275C17.5871 19.7654 17.8987 19.717 18.1921 19.6097C18.4855 19.5024 18.7548 19.3384 18.9847 19.1269C19.2145 18.9154 19.4005 18.6606 19.5318 18.3772C19.6631 18.0938 19.7373 17.7873 19.75 17.4751V6.27915C19.7373 5.96704 19.6631 5.6605 19.5318 5.37708C19.4005 5.09366 19.2145 4.83892 18.9847 4.62743C18.7548 4.41594 18.4855 4.25185 18.1921 4.14456C17.8987 4.03727 17.5871 3.98887 17.275 4.00215H14.575C14.396 4.00215 14.2243 4.07326 14.0977 4.19985C13.9711 4.32644 13.9 4.49813 13.9 4.67715C13.9 4.85617 13.9711 5.02786 14.0977 5.15444C14.2243 5.28103 14.396 5.35215 14.575 5.35215H17.275C17.5422 5.32891 17.8082 5.40943 18.0176 5.57699C18.2271 5.74456 18.364 5.98633 18.4 6.25215V17.4751C18.364 17.741 18.2271 17.9827 18.0176 18.1503C17.8082 18.3179 17.5422 18.3984 17.275 18.3751H14.575C14.396 18.3751 14.2243 18.4463 14.0977 18.5729C13.9711 18.6994 13.9 18.8711 13.9 19.0501C13.9 19.2292 13.9711 19.4009 14.0977 19.5274C14.2243 19.654 14.396 19.7251 14.575 19.7251V19.7521ZM8.275 16.1521C8.36369 16.1526 8.45156 16.1353 8.53347 16.1013C8.61538 16.0673 8.68968 16.0172 8.752 15.9541C8.8784 15.8276 8.94941 15.656 8.94941 15.4771C8.94941 15.2983 8.8784 15.1267 8.752 15.0001L5.629 11.8771L8.752 8.75415C8.81832 8.69235 8.87151 8.61783 8.9084 8.53503C8.9453 8.45223 8.96513 8.36285 8.96673 8.27222C8.96833 8.18158 8.95166 8.09156 8.91771 8.00751C8.88376 7.92346 8.83323 7.84711 8.76913 7.78301C8.70504 7.71892 8.62869 7.66839 8.54464 7.63444C8.46059 7.60049 8.37056 7.58382 8.27993 7.58541C8.1893 7.58701 8.09991 7.60685 8.01711 7.64374C7.93431 7.68064 7.85979 7.73383 7.798 7.80015L4.198 11.4001C4.07159 11.5267 4.00059 11.6983 4.00059 11.8771C4.00059 12.056 4.07159 12.2276 4.198 12.3541L7.798 15.9541C7.86032 16.0172 7.93461 16.0673 8.01653 16.1013C8.09844 16.1353 8.18631 16.1526 8.275 16.1521Z" fill="white"/>
<path d="M4.675 12.5531H14.575C14.754 12.5531 14.9257 12.482 15.0523 12.3554C15.1789 12.2288 15.25 12.0571 15.25 11.8781C15.25 11.6991 15.1789 11.5274 15.0523 11.4008C14.9257 11.2742 14.754 11.2031 14.575 11.2031H4.675C4.49598 11.2031 4.32429 11.2742 4.1977 11.4008C4.07112 11.5274 4 11.6991 4 11.8781C4 12.0571 4.07112 12.2288 4.1977 12.3554C4.32429 12.482 4.49598 12.5531 4.675 12.5531Z" fill="white"/>
</svg>
