<svg width="260" height="58" viewBox="0 0 260 58" fill="none" xmlns="http://www.w3.org/2000/svg">
<path d="M37.8475 10.3335L34.2907 20.06H41.6132L37.8475 10.3335ZM38.787 8.03229L46.214 27.1753H44.3311L42.0299 21.4217H33.7657L31.674 27.1753H30L36.9042 8.03174L38.787 8.03229Z" fill="white"/>
<path d="M54.7915 27.1753V8.03174H65.148V9.28679H56.5699V16.7143H62.3235V17.9694H56.5699V25.8169H65.7753V27.1753H54.7915Z" fill="white"/>
<path d="M74.4583 24.9776C75.1037 25.2675 75.7684 25.5122 76.4478 25.7099C77.3342 25.9589 78.2476 26.0994 79.1679 26.1282C80.4564 26.2041 81.7364 25.8756 82.8292 25.1887C83.2199 24.8973 83.5369 24.5184 83.7549 24.0824C83.9728 23.6465 84.0856 23.1655 84.0842 22.6781C84.0842 20.4813 82.3058 18.9123 78.854 17.9706C75.4022 17.0289 73.6216 15.1444 73.7266 12.2154C73.7287 11.5662 73.8808 10.9263 74.1711 10.3457C74.4614 9.76499 74.882 9.25929 75.4 8.86805C76.6173 7.9093 78.1417 7.42591 79.6891 7.508C80.5705 7.50287 81.449 7.60832 82.3042 7.8219C83.022 8.00258 83.7221 8.24766 84.3959 8.55415L83.7681 9.9142C83.2448 9.70475 82.722 9.49585 82.0942 9.2864C81.3103 9.07269 80.5009 8.96708 79.6885 8.9725C78.5816 8.92573 77.4868 9.21761 76.55 9.8092C76.2082 10.1076 75.937 10.4784 75.756 10.8945C75.5751 11.3107 75.489 11.7619 75.5039 12.2154C75.5039 14.4122 77.2823 16.0839 80.7341 17.0273C84.1859 17.9706 85.9649 19.8518 85.8599 22.6758C85.8847 23.3555 85.7341 24.03 85.4226 24.6346C85.1111 25.2392 84.6493 25.7533 84.0815 26.1277C82.7402 27.0781 81.1215 27.5564 79.479 27.4877C78.4251 27.4869 77.3738 27.3818 76.3406 27.1738C75.5664 26.9697 74.8262 26.6531 74.1438 26.2343L74.4583 24.9776Z" fill="white"/>
<path d="M97.5764 8.03174H95.7979V27.1753H97.5764V8.03174Z" fill="white"/>
<path d="M120.485 27.0724L115.987 18.9132C115.987 18.9132 115.048 19.0176 113.791 19.0176H110.966V26.968H109.188V8.03385H114.106C115.832 7.97636 117.538 8.41171 119.025 9.2889C119.691 9.75351 120.225 10.3837 120.574 11.1173C120.923 11.851 121.075 12.6628 121.014 13.473C121.025 14.59 120.698 15.6841 120.075 16.6114C119.46 17.4907 118.581 18.1504 117.565 18.4943L122.483 27.0719L120.485 27.0724ZM114.104 9.49835H110.861V17.5531H113.79C115.097 17.6102 116.396 17.3216 117.556 16.7164C118.707 16.0886 119.23 15.0425 119.23 13.4735C119.23 11.9046 118.916 10.754 117.87 10.2306C116.685 9.70775 115.398 9.45751 114.104 9.49835Z" fill="white"/>
<path d="M129.448 0V19.3712" stroke="white" stroke-width="2"/>
<path d="M124.436 4.06494L135 15.0377" stroke="white" stroke-width="2"/>
<path d="M34.4148 51.4941H31.1186V41.3123H34.5192C35.5168 41.3123 36.3736 41.5162 37.0895 41.9238C37.8054 42.3282 38.3539 42.9099 38.7351 43.6689C39.1196 44.4245 39.3118 45.331 39.3118 46.3883C39.3118 47.4489 39.1179 48.3604 38.7301 49.1227C38.3456 49.885 37.7888 50.4717 37.0597 50.8826C36.3305 51.2903 35.4489 51.4941 34.4148 51.4941ZM32.6548 50.1518H34.3303C35.1058 50.1518 35.7505 50.006 36.2642 49.7143C36.7779 49.4193 37.1624 48.9934 37.4176 48.4366C37.6728 47.8765 37.8004 47.1937 37.8004 46.3883C37.8004 45.5895 37.6728 44.9118 37.4176 44.3549C37.1657 43.7981 36.7895 43.3755 36.2891 43.0872C35.7886 42.7988 35.1671 42.6547 34.4247 42.6547H32.6548V50.1518ZM41.1028 51.4941V43.8578H42.5893V51.4941H41.1028ZM41.8535 42.6795C41.595 42.6795 41.3729 42.5933 41.1873 42.421C41.005 42.2453 40.9139 42.0365 40.9139 41.7946C40.9139 41.5493 41.005 41.3405 41.1873 41.1681C41.3729 40.9925 41.595 40.9047 41.8535 40.9047C42.112 40.9047 42.3324 40.9925 42.5147 41.1681C42.7003 41.3405 42.7931 41.5493 42.7931 41.7946C42.7931 42.0365 42.7003 42.2453 42.5147 42.421C42.3324 42.5933 42.112 42.6795 41.8535 42.6795ZM47.7908 54.5169C47.1843 54.5169 46.6623 54.4373 46.2248 54.2782C45.7906 54.1191 45.436 53.9087 45.1609 53.6468C44.8858 53.385 44.6803 53.0983 44.5444 52.7868L45.8221 52.2598C45.9116 52.4056 46.0309 52.5597 46.18 52.7221C46.3325 52.8878 46.538 53.0287 46.7965 53.1447C47.0584 53.2607 47.3948 53.3187 47.8058 53.3187C48.3692 53.3187 48.8349 53.1812 49.2028 52.9061C49.5707 52.6343 49.7546 52.2001 49.7546 51.6035V50.1021H49.6602C49.5707 50.2645 49.4414 50.4451 49.2724 50.644C49.1067 50.8429 48.878 51.0152 48.5863 51.161C48.2946 51.3069 47.9151 51.3798 47.4478 51.3798C46.8446 51.3798 46.301 51.2389 45.8171 50.9572C45.3365 50.6722 44.9554 50.2529 44.6737 49.6994C44.3952 49.1426 44.256 48.4582 44.256 47.6461C44.256 46.8341 44.3936 46.1381 44.6687 45.5581C44.9471 44.978 45.3282 44.5339 45.8121 44.2257C46.296 43.9141 46.8446 43.7583 47.4577 43.7583C47.9317 43.7583 48.3145 43.8379 48.6062 43.997C48.8978 44.1528 49.1249 44.335 49.2873 44.5439C49.453 44.7527 49.5806 44.9366 49.6701 45.0957H49.7795V43.8578H51.2362V51.6632C51.2362 52.3194 51.0837 52.858 50.7788 53.2789C50.4738 53.6999 50.0612 54.0114 49.5408 54.2136C49.0238 54.4158 48.4405 54.5169 47.7908 54.5169ZM47.7759 50.1468C48.2035 50.1468 48.5647 50.0474 48.8597 49.8485C49.158 49.6464 49.3834 49.358 49.5359 48.9835C49.6916 48.6056 49.7695 48.1532 49.7695 47.6262C49.7695 47.1125 49.6933 46.6601 49.5408 46.269C49.3884 45.8779 49.1647 45.573 48.8697 45.3542C48.5747 45.1322 48.2101 45.0211 47.7759 45.0211C47.3285 45.0211 46.9556 45.1371 46.6573 45.3691C46.359 45.5978 46.1336 45.9094 45.9812 46.3038C45.832 46.6982 45.7575 47.139 45.7575 47.6262C45.7575 48.1267 45.8337 48.5659 45.9862 48.9437C46.1386 49.3216 46.364 49.6165 46.6623 49.8287C46.9639 50.0408 47.3351 50.1468 47.7759 50.1468ZM53.2298 51.4941V43.8578H54.7163V51.4941H53.2298ZM53.9805 42.6795C53.7219 42.6795 53.4999 42.5933 53.3143 42.421C53.132 42.2453 53.0408 42.0365 53.0408 41.7946C53.0408 41.5493 53.132 41.3405 53.3143 41.1681C53.4999 40.9925 53.7219 40.9047 53.9805 40.9047C54.239 40.9047 54.4594 40.9925 54.6417 41.1681C54.8273 41.3405 54.9201 41.5493 54.9201 41.7946C54.9201 42.0365 54.8273 42.2453 54.6417 42.421C54.4594 42.5933 54.239 42.6795 53.9805 42.6795ZM60.2807 43.8578V45.051H56.1096V43.8578H60.2807ZM57.2282 42.0282H58.7147V49.252C58.7147 49.5403 58.7578 49.7574 58.8439 49.9032C58.9301 50.0458 59.0411 50.1435 59.177 50.1966C59.3162 50.2463 59.467 50.2711 59.6294 50.2711C59.7488 50.2711 59.8532 50.2628 59.9426 50.2463C60.0321 50.2297 60.1017 50.2164 60.1515 50.2065L60.4199 51.4345C60.3337 51.4676 60.2111 51.5008 60.052 51.5339C59.8929 51.5704 59.6941 51.5903 59.4554 51.5936C59.0643 51.6002 58.6998 51.5306 58.3617 51.3848C58.0236 51.2389 57.7502 51.0136 57.5414 50.7086C57.3326 50.4037 57.2282 50.0209 57.2282 49.5602V42.0282ZM64.1474 51.6632C63.6635 51.6632 63.226 51.5737 62.8349 51.3947C62.4438 51.2124 62.1339 50.9489 61.9052 50.6042C61.6798 50.2595 61.5671 49.8369 61.5671 49.3365C61.5671 48.9056 61.65 48.551 61.8157 48.2725C61.9814 47.9941 62.2051 47.7737 62.4869 47.6113C62.7686 47.4489 63.0835 47.3263 63.4315 47.2434C63.7795 47.1606 64.1341 47.0976 64.4954 47.0545C64.9528 47.0015 65.324 46.9584 65.609 46.9252C65.8941 46.8888 66.1012 46.8308 66.2305 46.7512C66.3597 46.6717 66.4244 46.5424 66.4244 46.3635V46.3287C66.4244 45.8945 66.3017 45.5581 66.0565 45.3194C65.8145 45.0808 65.4532 44.9615 64.9727 44.9615C64.4722 44.9615 64.0778 45.0725 63.7894 45.2946C63.5044 45.5133 63.3072 45.7569 63.1978 46.0254L61.8008 45.7072C61.9665 45.2432 62.2085 44.8687 62.5266 44.5836C62.8481 44.2953 63.2177 44.0865 63.6353 43.9572C64.0529 43.8246 64.4921 43.7583 64.9528 43.7583C65.2577 43.7583 65.5808 43.7948 65.9222 43.8677C66.2669 43.9373 66.5884 44.0666 66.8867 44.2555C67.1883 44.4444 67.4353 44.7145 67.6275 45.0659C67.8197 45.4139 67.9158 45.8663 67.9158 46.4231V51.4941H66.4641V50.4501H66.4045C66.3084 50.6423 66.1642 50.8313 65.9719 51.0169C65.7797 51.2025 65.5328 51.3566 65.2312 51.4792C64.9296 51.6019 64.5683 51.6632 64.1474 51.6632ZM64.4705 50.47C64.8815 50.47 65.2328 50.3888 65.5245 50.2264C65.8195 50.064 66.0432 49.8519 66.1957 49.59C66.3514 49.3249 66.4293 49.0415 66.4293 48.7399V47.7555C66.3763 47.8085 66.2736 47.8583 66.1211 47.9047C65.9719 47.9477 65.8013 47.9859 65.609 48.019C65.4168 48.0488 65.2295 48.077 65.0472 48.1035C64.8649 48.1267 64.7125 48.1466 64.5898 48.1632C64.3015 48.1996 64.038 48.2609 63.7994 48.3471C63.564 48.4333 63.3751 48.5576 63.2326 48.72C63.0934 48.8791 63.0238 49.0912 63.0238 49.3564C63.0238 49.7243 63.1597 50.0027 63.4315 50.1916C63.7032 50.3772 64.0496 50.47 64.4705 50.47ZM71.3823 41.3123V51.4941H69.8958V41.3123H71.3823ZM77.2065 41.3123H79.0708L82.3123 49.2271H82.4316L85.6731 41.3123H87.5375V51.4941H86.0758V44.1262H85.9814L82.9785 51.4792H81.7654L78.7626 44.1213H78.6681V51.4941H77.2065V41.3123ZM91.8739 51.6632C91.39 51.6632 90.9525 51.5737 90.5614 51.3947C90.1703 51.2124 89.8604 50.9489 89.6317 50.6042C89.4064 50.2595 89.2937 49.8369 89.2937 49.3365C89.2937 48.9056 89.3765 48.551 89.5423 48.2725C89.708 47.9941 89.9317 47.7737 90.2134 47.6113C90.4951 47.4489 90.81 47.3263 91.158 47.2434C91.506 47.1606 91.8607 47.0976 92.2219 47.0545C92.6793 47.0015 93.0505 46.9584 93.3356 46.9252C93.6206 46.8888 93.8278 46.8308 93.957 46.7512C94.0863 46.6717 94.1509 46.5424 94.1509 46.3635V46.3287C94.1509 45.8945 94.0283 45.5581 93.783 45.3194C93.5411 45.0808 93.1798 44.9615 92.6992 44.9615C92.1987 44.9615 91.8043 45.0725 91.516 45.2946C91.2309 45.5133 91.0337 45.7569 90.9244 46.0254L89.5273 45.7072C89.6931 45.2432 89.935 44.8687 90.2532 44.5836C90.5747 44.2953 90.9442 44.0865 91.3619 43.9572C91.7795 43.8246 92.2186 43.7583 92.6793 43.7583C92.9843 43.7583 93.3074 43.7948 93.6488 43.8677C93.9935 43.9373 94.315 44.0666 94.6133 44.2555C94.9149 44.4444 95.1618 44.7145 95.354 45.0659C95.5463 45.4139 95.6424 45.8663 95.6424 46.4231V51.4941H94.1907V50.4501H94.131C94.0349 50.6423 93.8907 50.8313 93.6985 51.0169C93.5063 51.2025 93.2594 51.3566 92.9577 51.4792C92.6561 51.6019 92.2949 51.6632 91.8739 51.6632ZM92.1971 50.47C92.6081 50.47 92.9594 50.3888 93.2511 50.2264C93.546 50.064 93.7698 49.8519 93.9222 49.59C94.078 49.3249 94.1559 49.0415 94.1559 48.7399V47.7555C94.1029 47.8085 94.0001 47.8583 93.8477 47.9047C93.6985 47.9477 93.5278 47.9859 93.3356 48.019C93.1433 48.0488 92.9561 48.077 92.7738 48.1035C92.5915 48.1267 92.439 48.1466 92.3164 48.1632C92.0281 48.1996 91.7646 48.2609 91.5259 48.3471C91.2906 48.4333 91.1017 48.5576 90.9592 48.72C90.82 48.8791 90.7504 49.0912 90.7504 49.3564C90.7504 49.7243 90.8862 50.0027 91.158 50.1916C91.4298 50.3772 91.7762 50.47 92.1971 50.47ZM97.6223 51.4941V43.8578H99.0591V45.0708H99.1387C99.2779 44.6599 99.5231 44.3367 99.8745 44.1014C100.229 43.8627 100.63 43.7434 101.078 43.7434C101.17 43.7434 101.28 43.7467 101.406 43.7534C101.535 43.76 101.636 43.7683 101.709 43.7782V45.2001C101.649 45.1835 101.543 45.1653 101.391 45.1454C101.238 45.1222 101.086 45.1106 100.933 45.1106C100.582 45.1106 100.269 45.1852 99.9938 45.3343C99.722 45.4802 99.5066 45.684 99.3475 45.9458C99.1884 46.2044 99.1088 46.4993 99.1088 46.8308V51.4941H97.6223ZM104.363 48.9039L104.353 47.0893H104.611L107.654 43.8578H109.434L105.963 47.5368H105.73L104.363 48.9039ZM102.995 51.4941V41.3123H104.482V51.4941H102.995ZM107.818 51.4941L105.083 47.8649L106.108 46.8258L109.642 51.4941H107.818ZM113.765 51.6483C113.013 51.6483 112.365 51.4875 111.821 51.166C111.281 50.8412 110.863 50.3855 110.568 49.7988C110.277 49.2089 110.131 48.5178 110.131 47.7257C110.131 46.9435 110.277 46.2541 110.568 45.6575C110.863 45.0609 111.274 44.5952 111.801 44.2605C112.332 43.9257 112.951 43.7583 113.661 43.7583C114.092 43.7583 114.509 43.8296 114.914 43.9721C115.318 44.1146 115.681 44.3384 116.002 44.6433C116.324 44.9482 116.577 45.3443 116.763 45.8315C116.949 46.3154 117.041 46.9037 117.041 47.5964V48.1234H110.971V47.0098H115.585C115.585 46.6187 115.505 46.2723 115.346 45.9707C115.187 45.6658 114.963 45.4255 114.675 45.2498C114.39 45.0742 114.055 44.9863 113.671 44.9863C113.253 44.9863 112.888 45.0891 112.577 45.2946C112.269 45.4967 112.03 45.7619 111.861 46.09C111.695 46.4148 111.612 46.7678 111.612 47.149V48.019C111.612 48.5294 111.702 48.9636 111.881 49.3216C112.063 49.6795 112.317 49.9529 112.642 50.1419C112.966 50.3275 113.346 50.4203 113.78 50.4203C114.062 50.4203 114.319 50.3805 114.551 50.301C114.783 50.2181 114.983 50.0955 115.152 49.9331C115.321 49.7707 115.45 49.5701 115.54 49.3315L116.947 49.585C116.834 49.9993 116.632 50.3623 116.34 50.6738C116.052 50.9821 115.689 51.2224 115.252 51.3947C114.817 51.5637 114.322 51.6483 113.765 51.6483ZM122.255 43.8578V45.051H118.084V43.8578H122.255ZM119.203 42.0282H120.689V49.252C120.689 49.5403 120.732 49.7574 120.819 49.9032C120.905 50.0458 121.016 50.1435 121.152 50.1966C121.291 50.2463 121.442 50.2711 121.604 50.2711C121.723 50.2711 121.828 50.2628 121.917 50.2463C122.007 50.2297 122.076 50.2164 122.126 50.2065L122.395 51.4345C122.308 51.4676 122.186 51.5008 122.027 51.5339C121.868 51.5704 121.669 51.5903 121.43 51.5936C121.039 51.6002 120.674 51.5306 120.336 51.3848C119.998 51.2389 119.725 51.0136 119.516 50.7086C119.307 50.4037 119.203 50.0209 119.203 49.5602V42.0282ZM123.9 51.4941V43.8578H125.386V51.4941H123.9ZM124.65 42.6795C124.392 42.6795 124.17 42.5933 123.984 42.421C123.802 42.2453 123.711 42.0365 123.711 41.7946C123.711 41.5493 123.802 41.3405 123.984 41.1681C124.17 40.9925 124.392 40.9047 124.65 40.9047C124.909 40.9047 125.129 40.9925 125.312 41.1681C125.497 41.3405 125.59 41.5493 125.59 41.7946C125.59 42.0365 125.497 42.2453 125.312 42.421C125.129 42.5933 124.909 42.6795 124.65 42.6795ZM128.873 46.96V51.4941H127.386V43.8578H128.813V45.1007H128.907C129.083 44.6963 129.358 44.3715 129.733 44.1262C130.11 43.881 130.586 43.7583 131.159 43.7583C131.68 43.7583 132.136 43.8677 132.527 44.0865C132.918 44.3019 133.221 44.6234 133.436 45.051C133.652 45.4785 133.76 46.0072 133.76 46.6369V51.4941H132.273V46.8159C132.273 46.2624 132.129 45.8298 131.841 45.5183C131.552 45.2034 131.156 45.046 130.652 45.046C130.308 45.046 130.001 45.1206 129.733 45.2697C129.467 45.4189 129.257 45.6376 129.101 45.926C128.949 46.211 128.873 46.5557 128.873 46.96ZM138.955 54.5169C138.348 54.5169 137.826 54.4373 137.389 54.2782C136.955 54.1191 136.6 53.9087 136.325 53.6468C136.05 53.385 135.844 53.0983 135.708 52.7868L136.986 52.2598C137.076 52.4056 137.195 52.5597 137.344 52.7221C137.497 52.8878 137.702 53.0287 137.961 53.1447C138.222 53.2607 138.559 53.3187 138.97 53.3187C139.533 53.3187 139.999 53.1812 140.367 52.9061C140.735 52.6343 140.919 52.2001 140.919 51.6035V50.1021H140.824C140.735 50.2645 140.605 50.4451 140.436 50.644C140.271 50.8429 140.042 51.0152 139.75 51.161C139.459 51.3069 139.079 51.3798 138.612 51.3798C138.009 51.3798 137.465 51.2389 136.981 50.9572C136.501 50.6722 136.119 50.2529 135.838 49.6994C135.559 49.1426 135.42 48.4582 135.42 47.6461C135.42 46.8341 135.558 46.1381 135.833 45.5581C136.111 44.978 136.492 44.5339 136.976 44.2257C137.46 43.9141 138.009 43.7583 138.622 43.7583C139.096 43.7583 139.479 43.8379 139.77 43.997C140.062 44.1528 140.289 44.335 140.451 44.5439C140.617 44.7527 140.745 44.9366 140.834 45.0957H140.944V43.8578H142.4V51.6632C142.4 52.3194 142.248 52.858 141.943 53.2789C141.638 53.6999 141.225 54.0114 140.705 54.2136C140.188 54.4158 139.605 54.5169 138.955 54.5169ZM138.94 50.1468C139.368 50.1468 139.729 50.0474 140.024 49.8485C140.322 49.6464 140.547 49.358 140.7 48.9835C140.856 48.6056 140.934 48.1532 140.934 47.6262C140.934 47.1125 140.857 46.6601 140.705 46.269C140.552 45.8779 140.329 45.573 140.034 45.3542C139.739 45.1322 139.374 45.0211 138.94 45.0211C138.493 45.0211 138.12 45.1371 137.821 45.3691C137.523 45.5978 137.298 45.9094 137.145 46.3038C136.996 46.6982 136.922 47.139 136.922 47.6262C136.922 48.1267 136.998 48.5659 137.15 48.9437C137.303 49.3216 137.528 49.6165 137.826 49.8287C138.128 50.0408 138.499 50.1468 138.94 50.1468ZM149.078 51.4941H147.448L151.112 41.3123H152.887L156.551 51.4941H154.92L152.041 43.1618H151.962L149.078 51.4941ZM149.352 47.5069H154.642V48.7995H149.352V47.5069ZM162.739 48.3272V43.8578H164.23V51.4941H162.769V50.1717H162.689C162.514 50.5794 162.232 50.9191 161.844 51.1909C161.46 51.4593 160.981 51.5936 160.407 51.5936C159.917 51.5936 159.483 51.4859 159.105 51.2704C158.73 51.0517 158.435 50.7285 158.22 50.301C158.008 49.8734 157.902 49.3448 157.902 48.715V43.8578H159.388V48.536C159.388 49.0564 159.532 49.4707 159.821 49.7789C160.109 50.0872 160.484 50.2413 160.944 50.2413C161.223 50.2413 161.499 50.1717 161.775 50.0325C162.053 49.8933 162.283 49.6828 162.466 49.4011C162.651 49.1194 162.742 48.7614 162.739 48.3272ZM169.792 43.8578V45.051H165.621V43.8578H169.792ZM166.74 42.0282H168.226V49.252C168.226 49.5403 168.269 49.7574 168.356 49.9032C168.442 50.0458 168.553 50.1435 168.689 50.1966C168.828 50.2463 168.979 50.2711 169.141 50.2711C169.26 50.2711 169.365 50.2628 169.454 50.2463C169.544 50.2297 169.613 50.2164 169.663 50.2065L169.932 51.4345C169.845 51.4676 169.723 51.5008 169.564 51.5339C169.405 51.5704 169.206 51.5903 168.967 51.5936C168.576 51.6002 168.211 51.5306 167.873 51.3848C167.535 51.2389 167.262 51.0136 167.053 50.7086C166.844 50.4037 166.74 50.0209 166.74 49.5602V42.0282ZM174.571 51.6483C173.855 51.6483 173.231 51.4842 172.697 51.1561C172.163 50.8279 171.749 50.3689 171.454 49.7789C171.159 49.189 171.012 48.4996 171.012 47.7108C171.012 46.9186 171.159 46.2259 171.454 45.6326C171.749 45.0394 172.163 44.5787 172.697 44.2505C173.231 43.9224 173.855 43.7583 174.571 43.7583C175.287 43.7583 175.912 43.9224 176.446 44.2505C176.979 44.5787 177.394 45.0394 177.689 45.6326C177.984 46.2259 178.131 46.9186 178.131 47.7108C178.131 48.4996 177.984 49.189 177.689 49.7789C177.394 50.3689 176.979 50.8279 176.446 51.1561C175.912 51.4842 175.287 51.6483 174.571 51.6483ZM174.576 50.4004C175.04 50.4004 175.425 50.2778 175.73 50.0325C176.035 49.7872 176.26 49.4608 176.406 49.0531C176.555 48.6454 176.63 48.1963 176.63 47.7058C176.63 47.2186 176.555 46.7711 176.406 46.3635C176.26 45.9525 176.035 45.6227 175.73 45.3741C175.425 45.1255 175.04 45.0012 174.576 45.0012C174.109 45.0012 173.721 45.1255 173.413 45.3741C173.108 45.6227 172.881 45.9525 172.732 46.3635C172.586 46.7711 172.513 47.2186 172.513 47.7058C172.513 48.1963 172.586 48.6454 172.732 49.0531C172.881 49.4608 173.108 49.7872 173.413 50.0325C173.721 50.2778 174.109 50.4004 174.576 50.4004ZM179.79 51.4941V43.8578H181.217V45.1007H181.312C181.471 44.6797 181.731 44.3516 182.092 44.1163C182.453 43.8777 182.886 43.7583 183.39 43.7583C183.9 43.7583 184.328 43.8777 184.672 44.1163C185.02 44.3549 185.277 44.6831 185.443 45.1007H185.523C185.705 44.693 185.995 44.3682 186.393 44.1262C186.79 43.881 187.264 43.7583 187.814 43.7583C188.507 43.7583 189.072 43.9754 189.51 44.4096C189.951 44.8438 190.171 45.4984 190.171 46.3734V51.4941H188.684V46.5126C188.684 45.9956 188.544 45.621 188.262 45.389C187.98 45.157 187.644 45.041 187.253 45.041C186.769 45.041 186.393 45.1902 186.124 45.4885C185.856 45.7834 185.721 46.1629 185.721 46.627V51.4941H184.24V46.4181C184.24 46.0038 184.111 45.6708 183.852 45.4189C183.594 45.167 183.257 45.041 182.843 45.041C182.561 45.041 182.301 45.1156 182.062 45.2647C181.827 45.4106 181.636 45.6144 181.491 45.8762C181.348 46.1381 181.277 46.4413 181.277 46.786V51.4941H179.79ZM194.386 51.6632C193.902 51.6632 193.464 51.5737 193.073 51.3947C192.682 51.2124 192.372 50.9489 192.143 50.6042C191.918 50.2595 191.805 49.8369 191.805 49.3365C191.805 48.9056 191.888 48.551 192.054 48.2725C192.22 47.9941 192.443 47.7737 192.725 47.6113C193.007 47.4489 193.322 47.3263 193.67 47.2434C194.018 47.1606 194.372 47.0976 194.734 47.0545C195.191 47.0015 195.562 46.9584 195.847 46.9252C196.132 46.8888 196.339 46.8308 196.469 46.7512C196.598 46.6717 196.663 46.5424 196.663 46.3635V46.3287C196.663 45.8945 196.54 45.5581 196.295 45.3194C196.053 45.0808 195.692 44.9615 195.211 44.9615C194.71 44.9615 194.316 45.0725 194.028 45.2946C193.743 45.5133 193.545 45.7569 193.436 46.0254L192.039 45.7072C192.205 45.2432 192.447 44.8687 192.765 44.5836C193.086 44.2953 193.456 44.0865 193.874 43.9572C194.291 43.8246 194.73 43.7583 195.191 43.7583C195.496 43.7583 195.819 43.7948 196.161 43.8677C196.505 43.9373 196.827 44.0666 197.125 44.2555C197.427 44.4444 197.674 44.7145 197.866 45.0659C198.058 45.4139 198.154 45.8663 198.154 46.4231V51.4941H196.702V50.4501H196.643C196.547 50.6423 196.402 50.8313 196.21 51.0169C196.018 51.2025 195.771 51.3566 195.469 51.4792C195.168 51.6019 194.807 51.6632 194.386 51.6632ZM194.709 50.47C195.12 50.47 195.471 50.3888 195.763 50.2264C196.058 50.064 196.281 49.8519 196.434 49.59C196.59 49.3249 196.668 49.0415 196.668 48.7399V47.7555C196.615 47.8085 196.512 47.8583 196.359 47.9047C196.21 47.9477 196.04 47.9859 195.847 48.019C195.655 48.0488 195.468 48.077 195.286 48.1035C195.103 48.1267 194.951 48.1466 194.828 48.1632C194.54 48.1996 194.276 48.2609 194.038 48.3471C193.802 48.4333 193.613 48.5576 193.471 48.72C193.332 48.8791 193.262 49.0912 193.262 49.3564C193.262 49.7243 193.398 50.0027 193.67 50.1916C193.942 50.3772 194.288 50.47 194.709 50.47ZM203.699 43.8578V45.051H199.528V43.8578H203.699ZM200.646 42.0282H202.133V49.252C202.133 49.5403 202.176 49.7574 202.262 49.9032C202.348 50.0458 202.459 50.1435 202.595 50.1966C202.734 50.2463 202.885 50.2711 203.047 50.2711C203.167 50.2711 203.271 50.2628 203.361 50.2463C203.45 50.2297 203.52 50.2164 203.569 50.2065L203.838 51.4345C203.752 51.4676 203.629 51.5008 203.47 51.5339C203.311 51.5704 203.112 51.5903 202.873 51.5936C202.482 51.6002 202.118 51.5306 201.78 51.3848C201.442 51.2389 201.168 51.0136 200.959 50.7086C200.751 50.4037 200.646 50.0209 200.646 49.5602V42.0282ZM205.343 51.4941V43.8578H206.83V51.4941H205.343ZM206.094 42.6795C205.835 42.6795 205.613 42.5933 205.428 42.421C205.245 42.2453 205.154 42.0365 205.154 41.7946C205.154 41.5493 205.245 41.3405 205.428 41.1681C205.613 40.9925 205.835 40.9047 206.094 40.9047C206.352 40.9047 206.573 40.9925 206.755 41.1681C206.941 41.3405 207.033 41.5493 207.033 41.7946C207.033 42.0365 206.941 42.2453 206.755 42.421C206.573 42.5933 206.352 42.6795 206.094 42.6795ZM212.046 51.6483C211.33 51.6483 210.705 51.4842 210.172 51.1561C209.638 50.8279 209.224 50.3689 208.929 49.7789C208.634 49.189 208.486 48.4996 208.486 47.7108C208.486 46.9186 208.634 46.2259 208.929 45.6326C209.224 45.0394 209.638 44.5787 210.172 44.2505C210.705 43.9224 211.33 43.7583 212.046 43.7583C212.762 43.7583 213.387 43.9224 213.92 44.2505C214.454 44.5787 214.868 45.0394 215.163 45.6326C215.458 46.2259 215.606 46.9186 215.606 47.7108C215.606 48.4996 215.458 49.189 215.163 49.7789C214.868 50.3689 214.454 50.8279 213.92 51.1561C213.387 51.4842 212.762 51.6483 212.046 51.6483ZM212.051 50.4004C212.515 50.4004 212.899 50.2778 213.204 50.0325C213.509 49.7872 213.735 49.4608 213.881 49.0531C214.03 48.6454 214.104 48.1963 214.104 47.7058C214.104 47.2186 214.03 46.7711 213.881 46.3635C213.735 45.9525 213.509 45.6227 213.204 45.3741C212.899 45.1255 212.515 45.0012 212.051 45.0012C211.584 45.0012 211.196 45.1255 210.888 45.3741C210.583 45.6227 210.356 45.9525 210.206 46.3635C210.061 46.7711 209.988 47.2186 209.988 47.7058C209.988 48.1963 210.061 48.6454 210.206 49.0531C210.356 49.4608 210.583 49.7872 210.888 50.0325C211.196 50.2778 211.584 50.4004 212.051 50.4004ZM218.751 46.96V51.4941H217.265V43.8578H218.692V45.1007H218.786C218.962 44.6963 219.237 44.3715 219.612 44.1262C219.989 43.881 220.465 43.7583 221.038 43.7583C221.559 43.7583 222.014 43.8677 222.406 44.0865C222.797 44.3019 223.1 44.6234 223.315 45.051C223.531 45.4785 223.638 46.0072 223.638 46.6369V51.4941H222.152V46.8159C222.152 46.2624 222.008 45.8298 221.719 45.5183C221.431 45.2034 221.035 45.046 220.531 45.046C220.187 45.046 219.88 45.1206 219.612 45.2697C219.346 45.4189 219.136 45.6376 218.98 45.926C218.828 46.211 218.751 46.5557 218.751 46.96Z" fill="white"/>
</svg>
